<?xml version="1.0" encoding="UTF-8" standalone="no"?>
<!-- Created with Inkscape (http://www.inkscape.org/) -->

<svg
   width="16"
   height="16"
   viewBox="0 0 4.2333332 4.2333335"
   version="1.1"
   id="svg3149"
   inkscape:version="1.2.2 (b0a8486541, 2022-12-01)"
   sodipodi:docname="add_stairs.svg"
   xmlns:inkscape="http://www.inkscape.org/namespaces/inkscape"
   xmlns:sodipodi="http://sodipodi.sourceforge.net/DTD/sodipodi-0.dtd"
   xmlns="http://www.w3.org/2000/svg"
   xmlns:svg="http://www.w3.org/2000/svg">
  <sodipodi:namedview
     id="namedview3151"
     pagecolor="#505050"
     bordercolor="#eeeeee"
     borderopacity="1"
     inkscape:pageshadow="0"
     inkscape:pageopacity="0"
     inkscape:pagecheckerboard="0"
     inkscape:document-units="px"
     showgrid="false"
     units="px"
     width="16px"
     inkscape:zoom="22.627417"
     inkscape:cx="0.48613591"
     inkscape:cy="12.506951"
     inkscape:window-width="1920"
     inkscape:window-height="1053"
     inkscape:window-x="0"
     inkscape:window-y="0"
     inkscape:window-maximized="1"
     inkscape:current-layer="layer1"
     inkscape:lockguides="true"
     inkscape:showpageshadow="2"
     inkscape:deskcolor="#505050" />
  <defs
     id="defs3146" />
  <g
     inkscape:label="Layer 1"
     inkscape:groupmode="layer"
     id="layer1">
    <path
       id="rect44926"
       style="fill:#ffffff;fill-opacity:1;stroke:none;stroke-width:0.220261;stroke-linecap:round;stroke-linejoin:round;stroke-miterlimit:4;stroke-dasharray:none;stroke-opacity:1;paint-order:stroke markers fill"
       d="m 3.0563977,2.1740119 c -0.061012,0 -0.1101302,0.049118 -0.1101302,0.1101303 V 2.8347936 H 2.3956161 c -0.061012,0 -0.1101303,0.049118 -0.1101303,0.1101302 v 0.2202606 c 0,0.061012 0.049118,0.1101303 0.1101303,0.1101303 h 0.5506514 v 0.5506514 c 0,0.061012 0.049118,0.1101303 0.1101302,0.1101303 h 0.2202606 c 0.061012,0 0.1101303,-0.049118 0.1101303,-0.1101303 V 3.2753147 H 3.93744 c 0.061012,0 0.1101303,-0.049118 0.1101303,-0.1101303 V 2.9449238 c 0,-0.061012 -0.049118,-0.1101302 -0.1101303,-0.1101302 H 3.3867886 V 2.2841422 c 0,-0.061012 -0.049118,-0.1101303 -0.1101303,-0.1101303 z" />
    <path
       id="rect554"
       style="fill:#ffffff;stroke-width:0.157464;stroke-linecap:round;paint-order:stroke fill markers"
       d="m 0.396875,2.9104167 h 0.79375 0.2645833 l -0.79374997,0.79375 H 0.396875 Z"
       sodipodi:nodetypes="cccccc" />
    <path
       id="path571"
       style="fill:#ffffff;stroke-width:0.157464;stroke-linecap:round;paint-order:stroke fill markers"
       d="m 1.190625,2.1166667 h 0.79375 0.2645833 l -0.79375,0.79375 H 1.190625 Z"
       sodipodi:nodetypes="cccccc" />
    <path
       id="path573"
       style="fill:#ffffff;stroke-width:0.157464;stroke-linecap:round;paint-order:stroke fill markers"
       d="m 1.984375,1.3229167 h 0.79375 0.2645833 l -0.79375,0.79375 H 1.984375 Z"
       sodipodi:nodetypes="cccccc" />
    <path
       id="path575"
       style="fill:#ffffff;stroke-width:0.157464;stroke-linecap:round;paint-order:stroke fill markers"
       d="m 2.778125,0.52916667 h 0.79375 0.2645833 L 3.0427083,1.3229167 H 2.778125 Z"
       sodipodi:nodetypes="cccccc" />
    <rect
       style="fill:#ffffff;stroke-width:0.171833;stroke-linecap:round;paint-order:stroke fill markers"
       id="rect577"
       width="0.92604166"
       height="0.13229167"
       x="0.13229167"
       y="2.6458333" />
    <rect
       style="fill:#ffffff;stroke-width:0.171833;stroke-linecap:round;paint-order:stroke fill markers"
       id="rect579"
       width="0.92604166"
       height="0.13229167"
       x="0.92604166"
       y="1.8520833" />
    <rect
       style="fill:#ffffff;stroke-width:0.171833;stroke-linecap:round;paint-order:stroke fill markers"
       id="rect581"
       width="0.92604166"
       height="0.13229167"
       x="1.7197917"
       y="1.0583334" />
    <rect
       style="fill:#ffffff;stroke-width:0.205379;stroke-linecap:round;paint-order:stroke fill markers"
       id="rect583"
       width="1.3229166"
       height="0.13229167"
       x="2.5135417"
       y="0.26458335" />
  </g>
</svg>
