<?xml version="1.0" encoding="UTF-8" standalone="no"?>
<!-- Created with Inkscape (http://www.inkscape.org/) -->

<svg
   width="16"
   height="16"
   viewBox="0 0 4.2333332 4.2333333"
   version="1.1"
   id="svg5"
   inkscape:version="1.2.1 (9c6d41e410, 2022-07-14, custom)"
   sodipodi:docname="OT4G_OAuth.svg"
   xmlns:inkscape="http://www.inkscape.org/namespaces/inkscape"
   xmlns:sodipodi="http://sodipodi.sourceforge.net/DTD/sodipodi-0.dtd"
   xmlns="http://www.w3.org/2000/svg"
   xmlns:svg="http://www.w3.org/2000/svg">
  <sodipodi:namedview
     id="namedview7"
     pagecolor="#505050"
     bordercolor="#eeeeee"
     borderopacity="1"
     inkscape:showpageshadow="0"
     inkscape:pageopacity="0"
     inkscape:pagecheckerboard="0"
     inkscape:deskcolor="#505050"
     inkscape:document-units="px"
     showgrid="false"
     inkscape:zoom="12.785522"
     inkscape:cx="4.4581677"
     inkscape:cy="7.2738525"
     inkscape:window-width="1916"
     inkscape:window-height="1033"
     inkscape:window-x="0"
     inkscape:window-y="18"
     inkscape:window-maximized="1"
     inkscape:current-layer="layer1" />
  <defs
     id="defs2" />
  <g
     inkscape:label="Layer 1"
     inkscape:groupmode="layer"
     id="layer1">
    <path
       id="path234"
       style="fill:#ffffff;stroke:none;stroke-width:9.01579;stroke-linecap:round;stroke-linejoin:bevel"
       d="M 0.86402993 0.011368815 C 0.84104661 0.011946412 0.81791025 0.0135354 0.79530028 0.016536458 C 0.61442036 0.04054491 0.4479661 0.13263809 0.31625976 0.26096598 C 0.18455337 0.38929383 0.085899523 0.55489332 0.05270996 0.7400065 C 0.019520397 0.92511965 0.056480646 1.1309663 0.19171956 1.3053467 L 0.19895426 1.3120646 L 0.51934813 1.6324585 A 2.0076931 2.0076931 0 0 1 0.64027098 1.3807942 L 0.40204264 1.1420491 C 0.31137084 1.0251348 0.29041681 0.90811211 0.31212564 0.78703205 C 0.3338345 0.66595199 0.40350721 0.54383783 0.49971109 0.45010172 C 0.59591498 0.35636559 0.71767861 0.29240083 0.82992349 0.27750244 C 0.941572 0.26268315 1.0438659 0.28782103 1.1410156 0.38137206 L 1.1420491 0.38240559 L 1.3931966 0.63355305 A 2.0076931 2.0076931 0 0 1 1.6464111 0.51366373 L 1.3260172 0.19326985 C 1.1922141 0.063345961 1.024913 0.0073256255 0.86402993 0.011368815 z M 2.38125 0.52916666 A 1.8520833 1.8520833 0 0 0 0.52916666 2.38125 A 1.8520833 1.8520833 0 0 0 2.38125 4.2333332 A 1.8520833 1.8520833 0 0 0 4.2333332 2.38125 A 1.8520833 1.8520833 0 0 0 2.38125 0.52916666 z M 1.5539103 1.2769246 L 3.5744588 1.2769246 L 3.5744588 2.8158487 L 3.2287434 3.2519978 L 2.4866699 3.2519978 L 2.0541381 3.6318196 L 2.0469034 3.2519978 L 1.120345 3.2519978 L 1.120345 1.7135905 L 1.5539103 1.2769246 z M 1.5688965 1.4727783 L 1.5688965 3.0065348 L 3.2240925 3.0065348 L 3.4018595 2.7972452 L 3.4018595 1.4727783 L 1.5688965 1.4727783 z M 2.0660237 1.5828491 L 2.3765991 1.5828491 L 2.3765991 2.5698689 L 2.0660237 2.5698689 L 2.0660237 1.5828491 z M 2.7491861 1.5828491 L 3.0597615 1.5828491 L 3.0597615 2.5698689 L 2.7491861 2.5698689 L 2.7491861 1.5828491 z " />
  </g>
</svg>
