<?xml version="1.0" encoding="UTF-8" standalone="no"?>
<!-- Created with Inkscape (http://www.inkscape.org/) -->

<svg
   width="16"
   height="16"
   viewBox="0 0 4.2333332 4.2333335"
   version="1.1"
   id="svg3149"
   inkscape:version="1.2.1 (9c6d41e410, 2022-07-14, custom)"
   sodipodi:docname="delete.svg"
   xml:space="preserve"
   xmlns:inkscape="http://www.inkscape.org/namespaces/inkscape"
   xmlns:sodipodi="http://sodipodi.sourceforge.net/DTD/sodipodi-0.dtd"
   xmlns="http://www.w3.org/2000/svg"
   xmlns:svg="http://www.w3.org/2000/svg"><sodipodi:namedview
     id="namedview3151"
     pagecolor="#505050"
     bordercolor="#eeeeee"
     borderopacity="1"
     inkscape:pageshadow="0"
     inkscape:pageopacity="0"
     inkscape:pagecheckerboard="0"
     inkscape:document-units="px"
     showgrid="false"
     units="px"
     width="16px"
     inkscape:zoom="32"
     inkscape:cx="8.421875"
     inkscape:cy="7.8125"
     inkscape:window-width="1916"
     inkscape:window-height="1033"
     inkscape:window-x="0"
     inkscape:window-y="18"
     inkscape:window-maximized="1"
     inkscape:current-layer="layer1"
     inkscape:lockguides="true"
     inkscape:showpageshadow="2"
     inkscape:deskcolor="#505050" /><defs
     id="defs3146" /><g
     inkscape:label="Layer 1"
     inkscape:groupmode="layer"
     id="layer1"><path
       id="rect311"
       style="fill:#ffffff;stroke-width:3.175;stroke-linecap:round;stroke-linejoin:round;paint-order:stroke markers fill"
       d="M 0.79375,1.0583333 1.0583333,4.2374675 H 2.1166667 V 3.852478 C 2.0497373,3.8519471 1.982743,3.8053953 1.984375,3.7150187 V 1.5983521 C 1.983315,1.514458 2.0499223,1.4702847 2.1166667,1.469161 V 1.1704788 C 1.6284598,1.175925 1.3003756,1.1991311 0.79375,1.0583333 Z M 1.4552083,1.469161 C 1.5219501,1.4680372 1.5888345,1.509963 1.5875,1.5983521 v 2.1166666 c 0.0016,0.1864277 -0.2678393,0.1802847 -0.2645833,0 V 1.5983521 C 1.3218667,1.514458 1.3884665,1.4702847 1.4552083,1.469161 Z"
       sodipodi:nodetypes="cccccccccsccccs" /><path
       id="path472"
       style="fill:#ffffff;stroke-width:3.175;stroke-linecap:round;stroke-linejoin:round;paint-order:stroke markers fill"
       d="M 3.4395834,1.0583333 3.1750001,4.2374675 H 2.1166667 V 3.852478 C 2.1835961,3.8519471 2.2505904,3.8053953 2.2489584,3.7150187 V 1.5983521 C 2.2500184,1.514458 2.1834111,1.4702847 2.1166667,1.469161 V 1.1704788 c 0.4882069,0.00545 0.8162911,0.028652 1.3229167,-0.1121455 z M 2.7781251,1.469161 C 2.7113833,1.4680372 2.6444989,1.509963 2.6458334,1.5983521 v 2.1166666 c -0.0016,0.1864277 0.2678393,0.1802847 0.2645833,0 V 1.5983521 C 2.9114667,1.514458 2.8448669,1.4702847 2.7781251,1.469161 Z"
       sodipodi:nodetypes="cccccccccsccccs" /><path
       id="path526"
       style="fill:#ffffff;stroke-width:3.80416;stroke-linecap:round;stroke-linejoin:round;paint-order:stroke markers fill"
       d="M 1.848466 0.33227946 A 1.3229166 0.2202179 0 0 0 0.7953003 0.53898519 L 0.79375 0.53898519 L 0.79375 0.54777018 L 0.79375 0.79323324 L 0.79375 0.80356853 L 0.79581706 0.80356853 A 1.3229166 0.2202179 0 0 0 2.1166667 1.0133748 A 1.3229166 0.2202179 0 0 0 3.4375163 0.80356853 L 3.4395833 0.80356853 L 3.4395833 0.79323324 L 3.4395833 0.54777018 L 3.4395833 0.53898519 L 3.4385498 0.53898519 A 1.3229166 0.2202179 0 0 0 2.38125 0.33227946 L 2.38125 0.56999105 L 1.8520833 0.56999105 L 1.8520833 0.33227946 A 1.3229166 0.2202179 0 0 0 1.848466 0.33227946 z " /><rect
       style="fill:#ffffff;stroke-width:3.18129;stroke-linecap:round;stroke-linejoin:round;paint-order:stroke markers fill"
       id="rect535"
       width="0.26458335"
       height="0.26458335"
       x="1.9947367"
       y="0.21314655" /></g></svg>
