<?xml version="1.0" encoding="UTF-8" standalone="no"?>
<!-- Created with Inkscape (http://www.inkscape.org/) -->

<svg
   width="16"
   height="16"
   viewBox="0 0 4.2333332 4.2333335"
   version="1.1"
   id="svg3149"
   inkscape:version="1.2.1 (9c6d41e410, 2022-07-14, custom)"
   sodipodi:docname="info.svg"
   xml:space="preserve"
   xmlns:inkscape="http://www.inkscape.org/namespaces/inkscape"
   xmlns:sodipodi="http://sodipodi.sourceforge.net/DTD/sodipodi-0.dtd"
   xmlns="http://www.w3.org/2000/svg"
   xmlns:svg="http://www.w3.org/2000/svg"><sodipodi:namedview
     id="namedview3151"
     pagecolor="#505050"
     bordercolor="#eeeeee"
     borderopacity="1"
     inkscape:pageshadow="0"
     inkscape:pageopacity="0"
     inkscape:pagecheckerboard="0"
     inkscape:document-units="px"
     showgrid="false"
     units="px"
     width="16px"
     inkscape:zoom="32"
     inkscape:cx="8.203125"
     inkscape:cy="6.65625"
     inkscape:window-width="956"
     inkscape:window-height="1033"
     inkscape:window-x="960"
     inkscape:window-y="18"
     inkscape:window-maximized="1"
     inkscape:current-layer="layer1"
     inkscape:lockguides="true"
     inkscape:showpageshadow="2"
     inkscape:deskcolor="#505050" /><defs
     id="defs3146" /><g
     inkscape:label="Layer 1"
     inkscape:groupmode="layer"
     id="layer1"><path
       id="path309"
       style="fill:#ffffff;stroke-width:4.64478;stroke-linecap:round;stroke-linejoin:round;paint-order:stroke markers fill"
       d="M 2.1166667 0 A 2.1166668 2.1166668 0 0 0 0 2.1166667 A 2.1166668 2.1166668 0 0 0 2.1166667 4.2333333 A 2.1166668 2.1166668 0 0 0 4.2333333 2.1166667 A 2.1166668 2.1166668 0 0 0 2.1166667 0 z M 2.1166667 0.26458333 A 1.8520833 1.8520833 0 0 1 3.96875 2.1166667 A 1.8520833 1.8520833 0 0 1 2.1166667 3.96875 A 1.8520833 1.8520833 0 0 1 0.26458333 2.1166667 A 1.8520833 1.8520833 0 0 1 2.1166667 0.26458333 z " /><g
       aria-label="i"
       id="text422"
       style="font-size:3.52778px;line-height:1.25;font-family:'OpenDyslexicAlta Nerd Font';-inkscape-font-specification:'OpenDyslexicAlta Nerd Font';letter-spacing:0px;word-spacing:0px;stroke-width:0.264583"><path
         d="m 2.3229932,3.0124905 h 0.6545686 v 0.244602 H 1.2860188 V 3.0124905 H 2.0129344 V 1.6378966 H 1.4634413 V 1.3932946 H 2.3229932 Z M 1.9784834,1.0315594 V 0.70082997 H 2.3229932 V 1.0315594 Z"
         style="font-family:'Liberation Mono';-inkscape-font-specification:'Liberation Mono';fill:#ffffff"
         id="path790" /></g></g></svg>
