<?xml version="1.0" encoding="UTF-8" standalone="no"?>
<!-- Created with Inkscape (http://www.inkscape.org/) -->

<svg
   width="16"
   height="16"
   viewBox="0 0 4.2333332 4.2333335"
   version="1.1"
   id="svg3149"
   inkscape:version="1.2.1 (9c6d41e410, 2022-07-14, custom)"
   sodipodi:docname="save.svg"
   xmlns:inkscape="http://www.inkscape.org/namespaces/inkscape"
   xmlns:sodipodi="http://sodipodi.sourceforge.net/DTD/sodipodi-0.dtd"
   xmlns="http://www.w3.org/2000/svg"
   xmlns:svg="http://www.w3.org/2000/svg">
  <sodipodi:namedview
     id="namedview3151"
     pagecolor="#505050"
     bordercolor="#eeeeee"
     borderopacity="1"
     inkscape:pageshadow="0"
     inkscape:pageopacity="0"
     inkscape:pagecheckerboard="0"
     inkscape:document-units="px"
     showgrid="false"
     units="px"
     width="16px"
     inkscape:zoom="16"
     inkscape:cx="9.375"
     inkscape:cy="7"
     inkscape:window-width="1920"
     inkscape:window-height="1053"
     inkscape:window-x="0"
     inkscape:window-y="0"
     inkscape:window-maximized="1"
     inkscape:current-layer="layer1"
     inkscape:lockguides="true"
     inkscape:showpageshadow="2"
     inkscape:deskcolor="#505050" />
  <defs
     id="defs3146" />
  <g
     inkscape:label="Layer 1"
     inkscape:groupmode="layer"
     id="layer1">
    <path
       id="rect344"
       style="fill:#ffffff;stroke-width:0.199212;stroke-linecap:round;stroke-linejoin:round;paint-order:stroke fill markers"
       d="M 0.26458333 0 C -0.005028056 0.0040590959 -0.0013332587 0.0010046369 0 0.52916667 L 0 3.96875 L 0.26458333 4.2333333 L 0.79375 4.2333333 L 0.79375 3.4395833 L 1.0583333 3.175 L 2.1166667 3.175 L 3.175 3.175 L 3.4395833 3.4395833 L 3.4395833 4.2333333 L 3.96875 4.2333333 L 4.2333333 3.96875 L 4.2333333 0.52916667 C 4.2285894 0.022227626 4.2233422 0.0038129062 3.96875 0 L 3.7041667 0 L 3.7041667 2.1166667 L 2.1166667 2.1166667 L 0.52916667 2.1166667 L 0.52916667 0 L 0.26458333 0 z M 0.79375 0 L 0.79375 1.8520833 L 2.1166667 1.8520833 L 3.4395833 1.8520833 L 3.4395833 0 L 2.1166667 0 L 0.79375 0 z M 1.3229167 3.4395833 L 1.0583333 3.7041667 L 1.0583333 4.2333333 L 2.1166667 4.2333333 L 2.6458333 4.2333333 L 2.6458333 3.7041667 L 2.38125 3.4395833 L 2.1166667 3.4395833 L 1.3229167 3.4395833 z " />
  </g>
</svg>
