<?xml version="1.0" encoding="UTF-8" standalone="no"?>
<!-- Created with Inkscape (http://www.inkscape.org/) -->

<svg
   width="16"
   height="16"
   viewBox="0 0 4.2333332 4.2333335"
   version="1.1"
   id="svg3149"
   inkscape:version="1.2.1 (9c6d41e410, 2022-07-14, custom)"
   sodipodi:docname="store.svg"
   xml:space="preserve"
   xmlns:inkscape="http://www.inkscape.org/namespaces/inkscape"
   xmlns:sodipodi="http://sodipodi.sourceforge.net/DTD/sodipodi-0.dtd"
   xmlns="http://www.w3.org/2000/svg"
   xmlns:svg="http://www.w3.org/2000/svg"><sodipodi:namedview
     id="namedview3151"
     pagecolor="#505050"
     bordercolor="#eeeeee"
     borderopacity="1"
     inkscape:pageshadow="0"
     inkscape:pageopacity="0"
     inkscape:pagecheckerboard="0"
     inkscape:document-units="px"
     showgrid="false"
     units="px"
     width="16px"
     inkscape:zoom="32"
     inkscape:cx="1.625"
     inkscape:cy="5.15625"
     inkscape:window-width="1920"
     inkscape:window-height="1053"
     inkscape:window-x="0"
     inkscape:window-y="0"
     inkscape:window-maximized="1"
     inkscape:current-layer="layer1"
     inkscape:lockguides="true"
     inkscape:showpageshadow="2"
     inkscape:deskcolor="#505050" /><defs
     id="defs3146" /><g
     inkscape:label="Layer 1"
     inkscape:groupmode="layer"
     id="layer1"><path
       id="rect534"
       style="fill:#ffffff;stroke-width:0.373885;stroke-linecap:round;stroke-linejoin:round;paint-order:stroke fill markers"
       d="m 0,0.5291667 0.52916667,0 V 3.4395833 L 1.0583333,3.7041667 H 3.175 L 3.7041667,3.4395833 V 0.5291667 l 0.5291669,0 V 3.96875 L 3.7041667,4.2333333 H 0.52916667 L 0,3.96875 Z"
       sodipodi:nodetypes="ccccccccccccc" /><path
       id="rect323"
       style="fill:#ffffff;stroke-width:3.33548;stroke-linecap:round;stroke-linejoin:round;paint-order:stroke markers fill"
       d="M 1.5875 0 L 1.5875 0.52916667 L 1.3229167 0.52916667 C 1.1022293 0.52952475 1.1010068 0.59280951 1.1761556 0.7648112 L 2.0096965 2.4318929 C 2.0492115 2.5092544 2.0497208 2.5090765 2.1166667 2.5135417 C 2.1836126 2.5090717 2.1841217 2.5092498 2.2236369 2.4318929 L 3.0571777 0.7648112 C 3.1323266 0.59280951 3.1311041 0.52952475 2.9104167 0.52916667 L 2.6458333 0.52916667 L 2.6458333 0 L 2.1166667 0 L 1.5875 0 z " /></g></svg>
